<svg xmlns="http://www.w3.org/2000/svg" xmlns:xlink="http://www.w3.org/1999/xlink" width="40" zoomAndPan="magnify" viewBox="0 0 30 30.000001" height="40" preserveAspectRatio="xMidYMid meet" version="1.0"><defs><g/><clipPath id="6c42118604"><path d="M 0.484375 0 L 29.515625 0 L 29.515625 29.03125 L 0.484375 29.03125 Z M 0.484375 0 " clip-rule="nonzero"/></clipPath><clipPath id="4a41c0076e"><path d="M 1.210938 0 L 28.789062 0 C 28.984375 0 29.167969 0.078125 29.304688 0.210938 C 29.441406 0.347656 29.515625 0.535156 29.515625 0.726562 L 29.515625 28.304688 C 29.515625 28.5 29.441406 28.683594 29.304688 28.820312 C 29.167969 28.957031 28.984375 29.03125 28.789062 29.03125 L 1.210938 29.03125 C 1.015625 29.03125 0.832031 28.957031 0.695312 28.820312 C 0.558594 28.683594 0.484375 28.5 0.484375 28.304688 L 0.484375 0.726562 C 0.484375 0.535156 0.558594 0.347656 0.695312 0.210938 C 0.832031 0.078125 1.015625 0 1.210938 0 Z M 1.210938 0 " clip-rule="nonzero"/></clipPath><clipPath id="8c686fa6c3"><path d="M 22.257812 21.773438 L 29.515625 21.773438 L 29.515625 29.03125 L 22.257812 29.03125 Z M 22.257812 21.773438 " clip-rule="nonzero"/></clipPath><clipPath id="bddba2d69f"><path d="M 22.984375 21.773438 L 28.789062 21.773438 C 28.984375 21.773438 29.167969 21.851562 29.304688 21.988281 C 29.441406 22.121094 29.515625 22.308594 29.515625 22.5 L 29.515625 28.304688 C 29.515625 28.5 29.441406 28.683594 29.304688 28.820312 C 29.167969 28.957031 28.984375 29.03125 28.789062 29.03125 L 22.984375 29.03125 C 22.792969 29.03125 22.605469 28.957031 22.46875 28.820312 C 22.335938 28.683594 22.257812 28.5 22.257812 28.304688 L 22.257812 22.5 C 22.257812 22.308594 22.335938 22.121094 22.46875 21.988281 C 22.605469 21.851562 22.792969 21.773438 22.984375 21.773438 Z M 22.984375 21.773438 " clip-rule="nonzero"/></clipPath><clipPath id="8faca4098e"><path d="M 0.257812 0.773438 L 7.515625 0.773438 L 7.515625 8.03125 L 0.257812 8.03125 Z M 0.257812 0.773438 " clip-rule="nonzero"/></clipPath><clipPath id="176742f1c5"><path d="M 0.984375 0.773438 L 6.789062 0.773438 C 6.984375 0.773438 7.167969 0.851562 7.304688 0.988281 C 7.441406 1.121094 7.515625 1.308594 7.515625 1.5 L 7.515625 7.304688 C 7.515625 7.5 7.441406 7.683594 7.304688 7.820312 C 7.167969 7.957031 6.984375 8.03125 6.789062 8.03125 L 0.984375 8.03125 C 0.792969 8.03125 0.605469 7.957031 0.46875 7.820312 C 0.335938 7.683594 0.257812 7.5 0.257812 7.304688 L 0.257812 1.5 C 0.257812 1.308594 0.335938 1.121094 0.46875 0.988281 C 0.605469 0.851562 0.792969 0.773438 0.984375 0.773438 Z M 0.984375 0.773438 " clip-rule="nonzero"/></clipPath><clipPath id="b7dc69440d"><rect x="0" width="8" y="0" height="9"/></clipPath><clipPath id="ba6fc0a620"><path d="M 4.289062 3.25 L 26 3.25 L 26 26.472656 L 4.289062 26.472656 Z M 4.289062 3.25 " clip-rule="nonzero"/></clipPath><clipPath id="c3a823a982"><path d="M 4.289062 3.25 L 25 3.25 L 25 25 L 4.289062 25 Z M 4.289062 3.25 " clip-rule="nonzero"/></clipPath><clipPath id="d24d152fad"><path d="M 4.289062 3.25 L 25 3.25 L 25 26 L 4.289062 26 Z M 4.289062 3.25 " clip-rule="nonzero"/></clipPath><clipPath id="a3d2d7f002"><rect x="0" width="6" y="0" height="6"/></clipPath></defs><g clip-path="url(#6c42118604)"><g clip-path="url(#4a41c0076e)"><path stroke-linecap="butt" transform="matrix(0.725806, 0, 0, 0.725806, 0.48387, 0.00000193548)" fill="none" stroke-linejoin="miter" d="M 1.001737 -0.00000266667 L 38.998267 -0.00000266667 C 39.267365 -0.00000266667 39.520316 0.107636 39.708684 0.290622 C 39.897052 0.47899 39.999309 0.737324 39.999309 1.001039 L 39.999309 38.99757 C 39.999309 39.266667 39.897052 39.519618 39.708684 39.707986 C 39.520316 39.896354 39.267365 39.998611 38.998267 39.998611 L 1.001737 39.998611 C 0.73264 39.998611 0.479688 39.896354 0.29132 39.707986 C 0.102952 39.519618 0.000695111 39.266667 0.000695111 38.99757 L 0.000695111 1.001039 C 0.000695111 0.737324 0.102952 0.47899 0.29132 0.290622 C 0.479688 0.107636 0.73264 -0.00000266667 1.001737 -0.00000266667 Z M 1.001737 -0.00000266667 " stroke="#3b659b" stroke-width="4" stroke-opacity="1" stroke-miterlimit="4"/></g></g><g clip-path="url(#8c686fa6c3)"><g clip-path="url(#bddba2d69f)"><g transform="matrix(1, 0, 0, 1, 22, 21)"><g clip-path="url(#b7dc69440d)"><g clip-path="url(#8faca4098e)"><g clip-path="url(#176742f1c5)"><path fill="#3b659b" d="M 0.257812 0.773438 L 7.515625 0.773438 L 7.515625 8.03125 L 0.257812 8.03125 Z M 0.257812 0.773438 " fill-opacity="1" fill-rule="nonzero"/></g></g></g></g></g></g><g clip-path="url(#ba6fc0a620)"><path fill="#000000" d="M 17.183594 26.019531 L 13.25 26.019531 C 12.136719 26.019531 11.230469 25.113281 11.230469 24 L 11.230469 10.464844 L 6.742188 10.464844 C 5.628906 10.464844 4.722656 9.558594 4.722656 8.445312 L 4.722656 5.796875 C 4.722656 4.683594 5.628906 3.777344 6.742188 3.777344 L 23.691406 3.777344 C 24.804688 3.777344 25.710938 4.683594 25.710938 5.796875 L 25.710938 8.445312 C 25.710938 9.558594 24.804688 10.464844 23.691406 10.464844 L 19.203125 10.464844 L 19.203125 24.003906 C 19.203125 25.117188 18.296875 26.023438 17.183594 26.023438 Z M 17.183594 26.019531 " fill-opacity="1" fill-rule="nonzero"/></g><g clip-path="url(#c3a823a982)"><path fill="#3b659b" d="M 6.164062 9.3125 L 11.230469 9.3125 L 11.230469 23.425781 C 11.230469 24.222656 11.878906 24.867188 12.675781 24.867188 L 16.605469 24.867188 C 17.402344 24.867188 18.046875 24.222656 18.046875 23.425781 L 18.046875 9.3125 L 23.113281 9.3125 C 23.910156 9.3125 24.558594 8.664062 24.558594 7.871094 L 24.558594 5.21875 C 24.558594 4.425781 23.910156 3.777344 23.113281 3.777344 L 6.164062 3.777344 C 5.367188 3.777344 4.722656 4.425781 4.722656 5.21875 L 4.722656 7.871094 C 4.722656 8.664062 5.367188 9.3125 6.164062 9.3125 Z M 6.164062 9.3125 " fill-opacity="1" fill-rule="nonzero"/></g><path fill="#ffffff" d="M 23.113281 4.210938 L 6.164062 4.210938 C 5.609375 4.210938 5.15625 4.664062 5.15625 5.21875 L 5.15625 7.871094 C 5.15625 8.367188 5.515625 8.777344 5.984375 8.863281 C 5.917969 8.738281 5.875 8.597656 5.875 8.445312 L 5.875 5.796875 C 5.875 5.320312 6.265625 4.933594 6.742188 4.933594 L 23.691406 4.933594 C 23.84375 4.933594 23.984375 4.976562 24.105469 5.042969 C 24.023438 4.570312 23.609375 4.210938 23.113281 4.210938 Z M 23.113281 4.210938 " fill-opacity="1" fill-rule="nonzero"/><path fill="#ffffff" d="M 12.496094 24.414062 C 12.425781 24.292969 12.386719 24.152344 12.386719 24 L 12.386719 9.890625 C 12.386719 9.570312 12.125 9.3125 11.808594 9.3125 L 11.664062 9.3125 L 11.664062 23.425781 C 11.664062 23.921875 12.023438 24.332031 12.496094 24.417969 Z M 12.496094 24.414062 " fill-opacity="1" fill-rule="nonzero"/><g clip-path="url(#d24d152fad)"><path fill="#000000" d="M 16.605469 25.296875 L 12.675781 25.296875 C 11.640625 25.296875 10.800781 24.457031 10.800781 23.421875 L 10.800781 9.746094 L 6.164062 9.746094 C 5.132812 9.746094 4.289062 8.902344 4.289062 7.871094 L 4.289062 5.21875 C 4.289062 4.1875 5.132812 3.34375 6.164062 3.34375 L 23.113281 3.34375 C 24.148438 3.34375 24.992188 4.1875 24.992188 5.21875 L 24.992188 7.871094 C 24.992188 8.902344 24.148438 9.746094 23.113281 9.746094 L 18.480469 9.746094 L 18.480469 23.425781 C 18.480469 24.457031 17.636719 25.300781 16.605469 25.300781 Z M 6.164062 4.210938 C 5.609375 4.210938 5.15625 4.664062 5.15625 5.21875 L 5.15625 7.871094 C 5.15625 8.425781 5.609375 8.878906 6.164062 8.878906 L 11.230469 8.878906 C 11.472656 8.878906 11.664062 9.074219 11.664062 9.3125 L 11.664062 23.425781 C 11.664062 23.984375 12.117188 24.4375 12.675781 24.4375 L 16.605469 24.4375 C 17.160156 24.4375 17.613281 23.984375 17.613281 23.425781 L 17.613281 9.3125 C 17.613281 9.074219 17.808594 8.878906 18.046875 8.878906 L 23.113281 8.878906 C 23.671875 8.878906 24.125 8.425781 24.125 7.871094 L 24.125 5.21875 C 24.125 4.664062 23.671875 4.210938 23.113281 4.210938 Z M 6.164062 4.210938 " fill-opacity="1" fill-rule="nonzero"/></g><g transform="matrix(1, 0, 0, 1, 23, 22)"><g clip-path="url(#a3d2d7f002)"><g fill="#000000" fill-opacity="1"><g transform="translate(0.726762, 4.607128)"><g><path d="M 1.265625 -3.328125 C 1.328125 -3.222656 1.394531 -3.09375 1.46875 -2.9375 C 1.539062 -2.78125 1.617188 -2.613281 1.703125 -2.4375 C 1.785156 -2.257812 1.863281 -2.070312 1.9375 -1.875 C 2.019531 -1.6875 2.097656 -1.507812 2.171875 -1.34375 C 2.242188 -1.507812 2.316406 -1.6875 2.390625 -1.875 C 2.472656 -2.070312 2.554688 -2.257812 2.640625 -2.4375 C 2.722656 -2.613281 2.800781 -2.78125 2.875 -2.9375 C 2.957031 -3.09375 3.023438 -3.222656 3.078125 -3.328125 L 3.765625 -3.328125 C 3.796875 -3.109375 3.820312 -2.863281 3.84375 -2.59375 C 3.875 -2.320312 3.898438 -2.035156 3.921875 -1.734375 C 3.941406 -1.441406 3.960938 -1.144531 3.984375 -0.84375 C 4.003906 -0.539062 4.019531 -0.257812 4.03125 0 L 3.296875 0 C 3.285156 -0.320312 3.269531 -0.671875 3.25 -1.046875 C 3.238281 -1.429688 3.21875 -1.820312 3.1875 -2.21875 C 3.125 -2.082031 3.054688 -1.929688 2.984375 -1.765625 C 2.921875 -1.597656 2.851562 -1.429688 2.78125 -1.265625 C 2.71875 -1.109375 2.648438 -0.953125 2.578125 -0.796875 C 2.515625 -0.648438 2.460938 -0.523438 2.421875 -0.421875 L 1.890625 -0.421875 C 1.847656 -0.523438 1.796875 -0.648438 1.734375 -0.796875 C 1.671875 -0.953125 1.601562 -1.109375 1.53125 -1.265625 C 1.457031 -1.429688 1.382812 -1.597656 1.3125 -1.765625 C 1.25 -1.929688 1.1875 -2.082031 1.125 -2.21875 C 1.09375 -1.820312 1.066406 -1.429688 1.046875 -1.046875 C 1.035156 -0.671875 1.023438 -0.320312 1.015625 0 L 0.28125 0 C 0.300781 -0.257812 0.316406 -0.539062 0.328125 -0.84375 C 0.347656 -1.144531 0.367188 -1.441406 0.390625 -1.734375 C 0.410156 -2.035156 0.429688 -2.320312 0.453125 -2.59375 C 0.484375 -2.863281 0.515625 -3.109375 0.546875 -3.328125 Z M 1.265625 -3.328125 "/></g></g></g></g></g></svg>